<svg width="37" height="30" viewBox="0 0 37 30" fill="none" xmlns="http://www.w3.org/2000/svg">
<path d="M6.16666 15C6.16666 14.0714 6.16666 13.6071 6.20091 13.2156C6.58158 8.86458 10.0312 5.41491 14.3823 5.03425C14.7737 5 15.238 5 16.1667 5H18.5C21.6011 5 23.1516 5 24.4146 5.37809C27.3163 6.24683 29.5865 8.51698 30.4552 11.4188C30.8333 12.6817 30.8333 14.2322 30.8333 17.3333V21.3636C30.8333 22.8983 30.8333 23.6657 30.4344 24.1986C30.3201 24.3512 30.1846 24.4868 30.0319 24.6011C29.499 25 28.7317 25 27.197 25H16.1667C15.238 25 14.7737 25 14.3823 24.9658C10.0312 24.5851 6.58158 21.1354 6.20091 16.7844C6.16666 16.3929 6.16666 15.9286 6.16666 15V15Z" stroke="#7F79F1" stroke-width="2"/>
<path d="M13.875 13.75L23.125 13.75" stroke="#7F79F1" stroke-width="2" stroke-linecap="round" stroke-linejoin="round"/>
<path d="M18.5 18.75H23.125" stroke="#7F79F1" stroke-width="2" stroke-linecap="round" stroke-linejoin="round"/>
</svg>
