<svg width="32" height="32" viewBox="0 0 32 32" fill="none" xmlns="http://www.w3.org/2000/svg">
<path d="M8.33137 11.9133L10.0996 15.0077C10.3764 15.4922 10.5148 15.7344 10.5148 16C10.5148 16.2655 10.3764 16.5078 10.0996 16.9922L8.33136 20.0866C7.09306 22.2536 6.47391 23.3371 6.95673 23.8745C7.43956 24.4118 8.58287 23.9116 10.8695 22.9112L22.4784 17.8323C24.2739 17.0467 25.1717 16.654 25.1717 16C25.1717 15.3459 24.2739 14.9532 22.4784 14.1676L10.8695 9.08873C8.58287 8.08833 7.43956 7.58813 6.95673 8.12545C6.47391 8.66277 7.09306 9.74629 8.33137 11.9133Z" stroke="#7F79F1" stroke-width="2"/>
</svg>
